<svg width="32" height="63" viewBox="0 0 32 63" fill="none" xmlns="http://www.w3.org/2000/svg">
<path d="M31.8353 43.1914C31.8353 34.6154 26.1398 31.9766 17.5233 30.151C10.8952 28.7012 5.66209 27.0826 5.66209 20.5241C5.66209 14.9167 9.83939 12.3469 16.1284 12.3469C22.4173 12.3469 25.608 14.9167 27.9895 18.4146L31.0723 16.236C28.213 11.7256 24.2747 9.33227 18.3556 8.86435V0.748596H14.926V8.81065C5.67752 9.2709 1.82398 14.4027 1.82398 20.5087C1.82398 28.6168 7.65055 31.9153 16.1977 33.5491C24.7449 35.183 27.9895 37.8372 27.9895 43.3065C27.9895 47.7249 24.9067 51.4836 16.7912 51.4836C9.9704 51.4836 6.77193 48.9752 3.94343 45.416L0.860596 47.5945C3.94343 52.0947 8.6319 54.5571 14.926 54.9815V62.7368H18.3556V54.9892C28.1051 54.4599 31.8353 48.7144 31.8353 43.1914Z" fill="#F93B1D"/>
</svg>
