<svg width="14" height="14" viewBox="0 0 14 14" fill="none" xmlns="http://www.w3.org/2000/svg">
<path fill-rule="evenodd" clip-rule="evenodd" d="M0.5 0C0.223858 0 0 0.223858 0 0.5V13.5C0 13.7761 0.223858 14 0.5 14H13.5C13.7761 14 14 13.7761 14 13.5V10.25C14 9.97386 13.7761 9.75 13.5 9.75C13.2239 9.75 13 9.97386 13 10.25V13H1V1H4.21429C4.49043 1 4.71429 0.776142 4.71429 0.5C4.71429 0.223858 4.49043 0 4.21429 0H0.5ZM13.8536 0.146446C13.9015 0.194385 13.9377 0.249636 13.9621 0.308609C13.9861 0.366692 13.9996 0.430299 14 0.497001L14 0.5V0.50049V5.5C14 5.77614 13.7761 6 13.5 6C13.2239 6 13 5.77614 13 5.5V1.70711L4.85355 9.85355C4.65829 10.0488 4.34171 10.0488 4.14645 9.85355C3.95118 9.65829 3.95118 9.34171 4.14645 9.14645L12.2929 1L8.5 1C8.22386 1 8 0.776142 8 0.5C8 0.223858 8.22386 0 8.5 0H13.4995H13.5L13.503 8.72412e-06C13.5697 0.0004005 13.6333 0.0138532 13.6914 0.0379389C13.7504 0.0623388 13.8056 0.098508 13.8536 0.146446Z" fill="#F93B1D"/>
</svg>
